<svg width="87" height="23" viewBox="0 0 87 23" fill="none" xmlns="http://www.w3.org/2000/svg">
<mask id="mask0_3103_12385" style="mask-type:luminance" maskUnits="userSpaceOnUse" x="0" y="0" width="87" height="24">
<path d="M86.8087 0H0V23.0083H86.8087V0Z" fill="white"/>
</mask>
<g mask="url(#mask0_3103_12385)">
<path d="M86.8091 22.829C85.2395 22.831 83.6706 22.8351 82.0989 22.8351C80.4293 22.8351 78.7591 22.8351 77.0874 22.8351C76.7279 22.8351 76.7279 22.8351 76.73 22.4754C76.73 15.1208 76.7315 7.76818 76.7257 0.413586C76.7257 0.164414 76.8062 0.108149 77.0392 0.110159C78.0077 0.120205 78.9762 0.114177 79.9447 0.114177C80.2884 0.114177 80.2906 0.114177 80.2906 0.459804C80.2941 6.05413 80.2963 11.6484 80.2985 17.2428C80.2985 17.8235 80.2985 18.4043 80.2985 18.985C80.2985 19.2844 80.3186 19.3044 80.6278 19.3044C82.4727 19.3044 84.3192 19.3044 86.1641 19.3125C86.3791 19.3125 86.5919 19.3607 86.8069 19.3868V22.8231L86.8091 22.829Z" fill="#968C8A"/>
<path d="M51.0915 13.0755C51.3186 12.0487 51.5436 11.0239 51.7707 9.99699C52.4801 6.78992 53.1894 3.58283 53.8927 0.373732C53.9369 0.174796 54.0133 0.110493 54.2222 0.112503C55.7173 0.12255 57.2124 0.118531 58.7074 0.118531C59.0812 0.118531 59.0832 0.118531 59.0832 0.49028C59.0832 3.13874 59.0832 5.78721 59.0832 8.43365C59.0832 13.1157 59.0832 17.7977 59.0832 22.4798C59.0832 22.8595 59.0671 22.8616 58.6873 22.8555C57.7268 22.8394 56.7662 22.8274 55.8057 22.8334C55.5445 22.8334 55.4842 22.737 55.4842 22.4978C55.4902 18.5392 55.4902 14.5786 55.4922 10.6199C55.4922 10.1557 55.4922 9.69357 55.4922 9.17717C55.3998 9.51475 55.3054 9.80609 55.2391 10.1056C54.7387 12.3561 54.2444 14.6087 53.7481 16.8613C53.3502 18.6597 52.9463 20.4563 52.5524 22.2547C52.4118 22.8977 52.5444 22.8454 51.8069 22.8475C51.2061 22.8475 50.6033 22.8294 50.0024 22.8475C49.7251 22.8555 49.6307 22.743 49.5764 22.4898C49.1665 20.5748 48.7445 18.6638 48.3245 16.7528C47.788 14.3073 47.2515 11.8598 46.7149 9.4143C46.7049 9.36807 46.6908 9.32184 46.6788 9.27359C46.6547 9.27359 46.6305 9.27359 46.6064 9.27158C46.6064 9.37612 46.6064 9.4806 46.6064 9.58507C46.6064 10.9555 46.6044 12.324 46.6044 13.6944C46.6044 16.6081 46.6044 19.5218 46.6044 22.4355C46.6044 22.8656 46.6044 22.8696 46.1824 22.8676C45.23 22.8636 44.2775 22.8475 43.327 22.8515C43.0698 22.8515 43.0055 22.7551 43.0055 22.5119C43.0135 18.0369 43.0135 13.5638 43.0135 9.08874C43.0135 6.19914 43.0135 3.31156 43.0055 0.421959C43.0055 0.172787 43.0879 0.118531 43.321 0.120541C44.8321 0.128578 46.3452 0.130588 47.8564 0.116522C48.1156 0.114512 48.1637 0.253164 48.2059 0.440044C48.423 1.42066 48.636 2.40127 48.855 3.37988C49.1886 4.87692 49.5282 6.37397 49.8597 7.87304C50.2315 9.5489 50.5952 11.2268 50.9649 12.9027C50.979 12.969 51.0051 13.0333 51.0252 13.0976C51.0473 13.0916 51.0695 13.0876 51.0895 13.0815L51.0915 13.0755Z" fill="#968C8A"/>
<path d="M14.1374 11.4679C14.1374 7.78259 14.1374 4.09724 14.1334 0.409896C14.1334 0.184837 14.1897 0.110487 14.4228 0.112497C15.4074 0.124553 16.394 0.116515 17.3787 0.118525C17.6901 0.118525 17.7142 0.13862 17.7183 0.460132C17.7243 0.924318 17.7223 1.39051 17.7223 1.85469C17.7223 4.17964 17.7243 6.50256 17.7183 8.82752C17.7183 9.05056 17.7785 9.0988 18.0016 9.09679C19.2957 9.0827 20.5898 9.08874 21.8858 9.08874C22.2114 9.08874 22.2134 9.09075 22.2134 8.73304C22.2134 6.09264 22.2134 3.45422 22.2134 0.8138C22.2134 0.657059 22.2234 0.498312 22.2134 0.341575C22.2034 0.166752 22.2797 0.112497 22.4505 0.114506C23.4774 0.120535 24.5062 0.120535 25.533 0.114506C25.7279 0.114506 25.8043 0.182828 25.8003 0.373726C25.7942 0.65505 25.8003 0.938382 25.8003 1.21971C25.8003 8.26684 25.8003 15.3141 25.8003 22.3632C25.8003 22.8656 25.8003 22.8535 25.2959 22.8475C24.3776 22.8334 23.4593 22.8354 22.5389 22.8314C22.2114 22.8314 22.2054 22.8254 22.2054 22.4938C22.2054 19.3068 22.2054 16.1198 22.2134 12.9308C22.2134 12.6816 22.131 12.6194 21.8979 12.6194C20.6039 12.6254 19.3077 12.6274 18.0136 12.6173C17.7805 12.6173 17.7183 12.6897 17.7183 12.9167C17.7243 16.0957 17.7223 19.2746 17.7203 22.4556C17.7203 22.8414 17.7042 22.8636 17.3143 22.8616C16.3538 22.8575 15.3933 22.8394 14.4328 22.8475C14.1535 22.8495 14.1273 22.7249 14.1273 22.4998C14.1313 18.8225 14.1313 15.1452 14.1313 11.4679H14.1374Z" fill="#968C8A"/>
<path d="M61.3458 22.7871C61.4161 22.3953 61.4845 22.0075 61.5548 21.6197C61.8341 20.0683 62.1155 18.5191 62.3948 16.9678C62.6841 15.3683 62.9735 13.7687 63.2628 12.1692C63.6286 10.1457 63.9923 8.12217 64.3601 6.09862C64.7096 4.17357 65.0633 2.24851 65.4089 0.321441C65.4371 0.160684 65.5074 0.116477 65.6561 0.116477C67.2175 0.118485 68.7808 0.120495 70.3421 0.112457C70.5511 0.112457 70.5893 0.224987 70.6174 0.383734C70.8285 1.55927 71.0394 2.7348 71.2545 3.91033C71.5519 5.542 71.8593 7.17167 72.153 8.80336C72.5967 11.269 73.0288 13.7345 73.471 16.2002C73.8024 18.0448 74.1382 19.8875 74.4733 21.7322C74.5301 22.0417 74.584 22.3531 74.6501 22.6606C74.6825 22.8133 74.6199 22.8554 74.4833 22.8554C73.4408 22.8475 72.396 22.8354 71.3529 22.8334C71.1479 22.8334 71.0696 22.7309 71.0394 22.556C70.7521 20.9565 70.4627 19.357 70.1834 17.7575C70.1532 17.5847 70.0588 17.5625 69.9242 17.5625C69.448 17.5606 68.9717 17.5566 68.4955 17.5566C67.7017 17.5546 66.908 17.5566 66.1143 17.5485C65.9153 17.5465 65.839 17.6208 65.8068 17.8158C65.624 18.9109 65.4271 20.0041 65.2342 21.0992C65.1437 21.6136 65.0532 22.128 64.9488 22.6405C64.9348 22.7108 64.8423 22.8213 64.7841 22.8213C63.6808 22.8314 62.5796 22.8273 61.4765 22.8253C61.4463 22.8253 61.4141 22.8073 61.3478 22.7871H61.3458ZM68.0394 5.95193C67.4948 8.64662 66.9985 11.3252 66.5322 14.0199C67.4365 14.0199 68.2724 14.0199 69.1064 14.0199C69.4982 14.0199 69.5022 14.0199 69.4359 13.6462C69.0481 11.4498 68.6582 9.25547 68.2664 7.05915C68.2001 6.68941 68.1157 6.32168 68.0394 5.95193Z" fill="#968C8A"/>
<path d="M40.9012 22.8154C40.7767 22.8234 40.6963 22.8355 40.6139 22.8355C39.6031 22.8355 38.5924 22.8254 37.5816 22.8355C37.3546 22.8375 37.2842 22.7491 37.2481 22.5441C36.9707 20.9687 36.6793 19.3933 36.4021 17.8178C36.3659 17.6109 36.2755 17.5486 36.0685 17.5506C34.8246 17.5606 33.5787 17.5627 32.3349 17.5526C32.1299 17.5526 32.0637 17.621 32.0315 17.8099C31.7522 19.4114 31.4608 21.0109 31.1815 22.6104C31.1514 22.7852 31.065 22.8616 30.9022 22.8596C29.8331 22.8495 28.7641 22.8375 27.6951 22.8234C27.665 22.8234 27.6328 22.8033 27.5806 22.7873C27.6147 22.5481 27.6428 22.311 27.685 22.0779C27.9864 20.404 28.2919 18.7322 28.5953 17.0583C29.0756 14.3978 29.5538 11.7373 30.0361 9.07671C30.426 6.9226 30.8198 4.76847 31.2116 2.61433C31.3503 1.84672 31.493 1.08111 31.6256 0.311495C31.6517 0.164805 31.714 0.116577 31.8546 0.116577C33.416 0.118587 34.9794 0.118587 36.5407 0.116577C36.7296 0.116577 36.808 0.211022 36.8381 0.381826C37.0531 1.59955 37.2681 2.81527 37.4871 4.03301C37.66 4.99554 37.8428 5.95605 38.0177 6.92059C38.2427 8.1604 38.4617 9.40228 38.6848 10.6441C38.8536 11.5825 39.0244 12.521 39.1932 13.4594C39.4403 14.8218 39.6875 16.1842 39.9327 17.5486C40.222 19.1562 40.5094 20.7638 40.7987 22.3713C40.8228 22.5079 40.861 22.6426 40.9012 22.8174V22.8154ZM34.2499 5.91386C34.2359 5.91185 34.2198 5.90984 34.2057 5.90582C34.1857 5.97414 34.1615 6.04246 34.1494 6.11279C34.0068 6.90452 33.8681 7.69621 33.7274 8.48798C33.41 10.2503 33.0945 12.0126 32.7689 13.7728C32.7328 13.9678 32.777 14.022 32.9739 14.02C33.7757 14.012 34.5775 14.014 35.3792 14.016C35.7148 14.016 35.7248 14.014 35.6646 13.6844C35.3511 11.9643 35.0336 10.2442 34.7202 8.52214C34.5614 7.65207 34.4087 6.78194 34.252 5.91185L34.2499 5.91386Z" fill="#968C8A"/>
<path d="M9.96418 5.58037C9.45383 5.58037 8.94542 5.57635 8.435 5.58238C8.26423 5.58439 8.19787 5.52813 8.15164 5.3533C8.05723 4.99562 7.96678 4.62186 7.78796 4.30437C7.42623 3.65732 6.82945 3.34786 6.08595 3.3559C5.58158 3.36193 5.08524 3.43628 4.65522 3.73368C4.3317 3.95673 4.12472 4.26217 4.05439 4.64597C3.9077 5.43167 4.00616 6.17718 4.41409 6.87848C5.08123 8.02385 5.9895 8.95626 6.99623 9.80023C8.12554 10.7467 9.28903 11.651 10.3379 12.6919C11.7767 14.1185 12.4499 15.8446 12.251 17.836C12.0098 20.2534 10.4706 22.2006 7.90854 22.8054C6.39139 23.1631 4.8863 23.0606 3.45156 22.4035C1.98265 21.7304 1.06633 20.5508 0.453447 19.102C0.178151 18.4509 0.117867 17.7537 0.00533787 17.0684C-0.0308323 16.8494 0.0495459 16.757 0.288671 16.759C1.25723 16.771 2.22578 16.765 3.19435 16.769C3.5661 16.769 3.55404 16.7771 3.60628 17.1247C3.77106 18.2259 4.25534 19.11 5.39269 19.4556C6.39541 19.7611 7.55083 19.5401 8.23605 18.6921C8.85497 17.9265 8.7927 16.4153 8.28027 15.7844C7.87841 15.2901 7.47246 14.7857 6.99825 14.3617C5.92118 13.3951 4.7778 12.499 3.70475 11.5284C2.6116 10.5417 1.6772 9.42246 1.0402 8.07411C0.280633 6.46654 0.141981 4.83888 0.801084 3.17907C1.47425 1.50118 2.74824 0.48841 4.51053 0.170916C5.66397 -0.0360583 6.86562 -0.110408 8.00697 0.273398C9.69894 0.840062 10.8263 2.0156 11.399 3.68545C11.5798 4.21193 11.62 4.78463 11.7245 5.33723C11.7586 5.52209 11.6823 5.58841 11.4934 5.58439C10.985 5.57434 10.4746 5.58037 9.96418 5.58037Z" fill="#968C8A"/>
</g>
</svg>
