<svg width="18" height="18" fill="none" xmlns="http://www.w3.org/2000/svg" viewBox="0 0 18 18"><path fill-rule="evenodd" clip-rule="evenodd" d="M7.77 1.51a4 4 0 0 1 2.46 0c.8.27 1.42.9 2.04 1.77.63.88 1.32 2.1 2.21 3.67l.04.07c.89 1.57 1.58 2.8 2 3.78.44 1 .66 1.86.48 2.69-.17.83-.6 1.58-1.22 2.16-.62.57-1.46.8-2.52.92s-2.44.12-4.22.12h-.08c-1.78 0-3.16 0-4.22-.12s-1.9-.35-2.52-.92A4 4 0 0 1 1 13.49c-.18-.83.04-1.69.47-2.69.43-.99 1.12-2.2 2.01-3.78l.04-.07c.89-1.57 1.58-2.8 2.2-3.67s1.26-1.5 2.05-1.77m1 6.76c.18.03.43.1.65.31.22.22.28.47.31.66l.02.48v3.03a.75.75 0 0 1-1.5 0v-3a.75.75 0 0 1 0-1.5h.03zM9 5.25a.75.75 0 0 0 0 1.5.75.75 0 0 0 0-1.5" fill="#B71D18"/></svg> 