<svg width="18" height="18" viewBox="0 0 18 18" fill="none" xmlns="http://www.w3.org/2000/svg">
<path fill-rule="evenodd" clip-rule="evenodd" d="M7.77149 1.51125C8.56983 1.24625 9.43018 1.24625 10.2285 1.51125C11.0236 1.77516 11.6478 2.40106 12.2749 3.28046C12.8999 4.15695 13.5906 5.37904 14.4809 6.95437L14.5158 7.01622C15.4062 8.59179 16.0969 9.81383 16.5273 10.8049C16.9598 11.8007 17.1752 12.6606 17.0033 13.4866C16.8302 14.3183 16.4035 15.0746 15.7821 15.6463C15.1622 16.2165 14.3181 16.4571 13.2552 16.5726C12.1984 16.6875 10.8159 16.6875 9.03657 16.6875H8.96344C7.18411 16.6875 5.80166 16.6875 4.74482 16.5726C3.68195 16.4571 2.83784 16.2165 2.21791 15.6463C1.59647 15.0746 1.16976 14.3183 0.996715 13.4866C0.824849 12.6606 1.04025 11.8007 1.47274 10.8049C1.90314 9.81383 2.59376 8.59179 3.48419 7.01622L3.51913 6.95437C4.40941 5.37905 5.10006 4.15695 5.7251 3.28046C6.35222 2.40106 6.97645 1.77516 7.77149 1.51125ZM8.76141 8.27044C8.9467 8.29535 9.203 8.36204 9.4205 8.57953C9.63799 8.79702 9.70467 9.05333 9.72958 9.23861C9.75022 9.39211 9.75011 9.57058 9.75001 9.72049L9.75 12.75C9.75 13.1642 9.41421 13.5 9 13.5C8.58579 13.5 8.25 13.1642 8.25 12.75V9.75003C7.83579 9.75003 7.5 9.41424 7.5 9.00003C7.5 8.58581 7.83579 8.25003 8.25 8.25003L8.27954 8.25001C8.42944 8.24992 8.60792 8.24981 8.76141 8.27044ZM8.99658 5.25C8.58422 5.25 8.24993 5.58579 8.24993 6C8.24993 6.41421 8.58422 6.75 8.99658 6.75H9.00329C9.41565 6.75 9.74993 6.41421 9.74993 6C9.74993 5.58579 9.41565 5.25 9.00329 5.25H8.99658Z" fill="#B76E00"/>
</svg>
