<svg width="26" height="26" viewBox="0 0 26 26" fill="none" xmlns="http://www.w3.org/2000/svg">
<rect width="26" height="26" rx="13" fill="#22C55E" fill-opacity="0.16"/>
<path fill-rule="evenodd" clip-rule="evenodd" d="M4.9375 13C4.9375 17.4528 8.54725 21.0625 13 21.0625C17.4528 21.0625 21.0625 17.4528 21.0625 13C21.0625 8.54725 17.4528 4.9375 13 4.9375C8.54725 4.9375 4.9375 8.54725 4.9375 13ZM16.507 10.1972C16.8123 10.477 16.8325 10.9517 16.5528 11.257L12.4278 15.757C12.2898 15.9077 12.0955 15.9955 11.8915 16C11.6867 16.0045 11.4895 15.925 11.3447 15.7803L9.46975 13.9053C9.1765 13.6128 9.1765 13.1372 9.46975 12.8447C9.76225 12.5515 10.2378 12.5515 10.5303 12.8447L11.8517 14.1655L15.4472 10.243C15.727 9.93777 16.2018 9.91749 16.507 10.1972Z" fill="#118D57"/>
</svg>
