<svg width="24" height="23" viewBox="0 0 24 23" fill="none" xmlns="http://www.w3.org/2000/svg">
<g clip-path="url(#clip0_3103_20056)">
<path d="M14.2761 1.44344C11.8432 2.23106 9.84316 2.88673 9.83491 2.89498C9.7978 2.92797 10.3957 4.70117 10.4411 4.70117C10.4658 4.70117 12.0081 4.21045 13.8679 3.60838C15.7318 3.00632 17.27 2.51972 17.2906 2.52797C17.3112 2.5321 17.7318 3.77746 18.2267 5.29086C18.7215 6.80426 19.1298 8.05375 19.1421 8.06199C19.1586 8.08261 21.0803 7.46818 21.1215 7.42694C21.1462 7.4022 20.7421 6.11972 19.1091 1.08055C18.9153 0.486734 18.7462 0.000136375 18.7298 0.00426006C18.7133 0.00838375 16.7091 0.655807 14.2761 1.44344Z" fill="black"/>
<path d="M4.21836 4.69664C1.92146 5.4389 0.0327956 6.05746 0.0245482 6.06571C0.00392966 6.0822 2.36682 13.4348 2.40393 13.4678C2.42455 13.4884 4.41218 12.8533 4.41218 12.8245C4.41218 12.8121 4.00805 11.5585 3.51321 10.041C2.91939 8.22653 2.62661 7.26983 2.65548 7.24921C2.68022 7.23684 4.11939 6.76674 5.85548 6.20592C7.59156 5.64509 9.02249 5.17911 9.03486 5.17086C9.0761 5.14612 8.48228 3.33994 8.43692 3.33994C8.41218 3.34406 6.51115 3.95024 4.21836 4.69664Z" fill="black"/>
<path d="M12.7008 5.45165C11.5791 5.81454 10.6513 6.1197 10.6431 6.13207C10.6224 6.14856 11.5008 8.86609 11.5462 8.91557C11.575 8.95269 13.9915 9.81042 14.0163 9.7898C14.0245 9.78568 13.8513 9.22897 13.6286 8.55681C13.4101 7.88052 13.2369 7.32794 13.2451 7.3197C13.2534 7.31557 13.6327 7.18774 14.0864 7.04341L14.9193 6.77537L15.8884 9.76918C16.4204 11.4145 16.8534 12.7671 16.8451 12.7754C16.841 12.7795 16.4699 12.9032 16.0163 13.0475L15.1956 13.3114L14.8699 12.3341L14.5441 11.3568L13.3235 10.9362C12.6513 10.7053 12.0905 10.5156 12.0781 10.5156C12.0534 10.5156 13.7523 15.7444 13.7853 15.7774C13.8018 15.7939 14.1812 15.6743 16.9317 14.7795L18.1317 14.3919L18.5936 13.5053L19.0554 12.6145L18.0864 9.6166C17.5544 7.96712 17.0596 6.43722 16.9894 6.21454L16.8616 5.81454L15.8348 5.29908C15.2657 5.01454 14.7915 4.78361 14.775 4.78774C14.7544 4.78774 13.8224 5.08877 12.7008 5.45165Z" fill="black"/>
<path d="M7.13387 7.2533C5.76067 7.69866 4.61428 8.07392 4.58129 8.08629C4.54006 8.10279 4.67614 8.56877 5.15449 10.0409C5.49676 11.109 5.78129 11.9791 5.78542 11.9832C5.78954 11.9832 6.67201 12.2884 7.74418 12.6595C8.81634 13.0306 9.71944 13.3523 9.75243 13.377C9.80191 13.4183 10.2308 14.6966 10.2431 14.8409C10.2473 14.8822 10.0658 14.9605 9.64933 15.0966C9.31944 15.2038 9.03902 15.278 9.02665 15.2616C9.01016 15.2492 8.91944 14.9935 8.82459 14.7007C8.72975 14.4038 8.64727 14.1605 8.63902 14.1523C8.62665 14.1358 6.67201 14.7585 6.64315 14.7873C6.62253 14.8079 6.6349 14.8492 7.21222 16.643L7.58748 17.8018L10.1978 16.9605C11.6287 16.4945 12.8205 16.1028 12.837 16.0822C12.8741 16.0492 11.5627 12.0038 11.4885 11.9337C11.4638 11.909 10.6184 11.6038 9.6081 11.2574C8.59779 10.911 7.72356 10.61 7.66583 10.5894C7.57511 10.5564 7.53799 10.478 7.36892 9.95846C7.26171 9.63268 7.17511 9.34402 7.17511 9.32341C7.17511 9.29866 7.44727 9.19557 7.78542 9.08835C8.11944 8.98114 8.41222 8.89042 8.43696 8.87805C8.45758 8.8698 8.52356 8.98939 8.57305 9.14196C8.62665 9.29454 8.68439 9.43887 8.70088 9.45537C8.72975 9.48835 10.4163 8.96877 10.4864 8.90691C10.5318 8.86567 9.72768 6.43268 9.66995 6.43681C9.64933 6.43681 8.50707 6.80794 7.13387 7.2533Z" fill="black"/>
<path d="M20.569 9.06359C20.0288 9.23678 19.5875 9.40173 19.5875 9.42647C19.5875 9.45122 19.9875 10.6966 20.4741 12.1935C20.9607 13.6945 21.3607 14.9358 21.3607 14.9522C21.3607 14.9729 19.8391 15.4801 17.9793 16.078C16.1195 16.6801 14.5772 17.1832 14.5525 17.1955C14.5236 17.2162 14.6061 17.5254 14.804 18.1316L15.0968 19.043L15.6411 18.8698C19.4803 17.645 23.9587 16.177 23.9587 16.144C23.9628 16.078 21.5917 8.74194 21.5669 8.74606C21.5545 8.74606 21.1051 8.89039 20.569 9.06359Z" fill="black"/>
<path d="M3.84724 14.47C3.32353 14.6432 2.87817 14.7958 2.8658 14.8123C2.84105 14.8329 5.16683 22.1484 5.22044 22.2185C5.24518 22.2514 13.7318 19.4803 13.7318 19.4391C13.7318 19.369 13.1916 17.7154 13.1586 17.6824C13.1421 17.6659 11.6947 18.1154 9.94209 18.6803C8.18951 19.2494 6.73384 19.7112 6.70497 19.7112C6.68023 19.7112 6.26786 18.5071 5.75239 16.9277C5.25755 15.3978 4.83693 14.1442 4.82456 14.1484C4.81219 14.1525 4.37507 14.2968 3.84724 14.47Z" fill="black"/>
</g>
<defs>
<clipPath id="clip0_3103_20056">
<rect width="24" height="22.2268" fill="white"/>
</clipPath>
</defs>
</svg>
