<svg version="1.2" xmlns="http://www.w3.org/2000/svg" viewBox="0 0 18 18" width="18" height="18">
	<style>
		.s0 { fill: #4d5963 } 
	</style>
	<path class="s0" d="m3.93 7.95q0.09 0.12 0.23 0.19 0.13 0.07 0.28 0.08 0.14 0.02 0.29-0.03 0.14-0.04 0.26-0.14l3.28-2.7-0.05 8.89q0 0.31 0.22 0.54 0.22 0.21 0.53 0.22 0.31-0.01 0.53-0.22 0.22-0.22 0.22-0.53l0.05-8.89 3.26 2.74q0.11 0.09 0.25 0.14 0.14 0.04 0.29 0.03 0.15-0.01 0.28-0.08 0.14-0.07 0.23-0.18 0.1-0.12 0.14-0.26 0.05-0.14 0.04-0.29-0.02-0.15-0.09-0.28-0.06-0.14-0.18-0.23l-4.48-3.78-0.11-0.07-0.1-0.05q-0.27-0.1-0.54 0l-0.09 0.05-0.12 0.07-4.52 3.72q-0.11 0.1-0.18 0.23-0.07 0.13-0.09 0.28-0.01 0.15 0.03 0.29 0.04 0.14 0.14 0.26z"/>
</svg>